<svg xmlns="http://www.w3.org/2000/svg" viewBox="0 0 495 270.17"><defs><style>.cls-1{fill:#fff;stroke:#fff;}.cls-1,.cls-2,.cls-4,.cls-7{stroke-miterlimit:10;}.cls-1,.cls-7{stroke-width:2px;}.cls-2,.cls-3,.cls-4,.cls-8{fill:#96351e;}.cls-2,.cls-4,.cls-7{stroke:#96351e;}.cls-4{opacity:0.9;font-size:40.63px;}.cls-4,.cls-8{font-family:BodoniMT, Bodoni MT;}.cls-5{letter-spacing:-0.01em;}.cls-6{letter-spacing:0em;}.cls-7{fill:none;}.cls-8{opacity:0.51;font-size:13.54px;}.cls-9{letter-spacing:-0.04em;}</style></defs><g id="Layer_2" data-name="Layer 2"><g id="Layer_1-2" data-name="Layer 1"><rect class="cls-1" x="1" y="1" width="493" height="268.17"/><path class="cls-2" d="M190.62,65l-10.13-9.73c-7.48-7.19-24.3-4.74-37.57,5.48L90,101.46c-13.27,10.22-18,24.34-10.48,31.53l9.83,9.45"/><line class="cls-2" x1="89.34" y1="142.65" x2="190.32" y2="64.96"/><polygon class="cls-2" points="108.98 156.78 91.43 146.24 135.53 112.32 152.74 123.5 108.98 156.78"/><path class="cls-2" d="M157.66,126.52c-13.18,11.42-32.49,25.5-46.4,37.81-7.64,6.75-16.51,12.69-22.53,20.75-9.16,12.26-11.41,28.7-5.75,42.14"/><path class="cls-2" d="M82.94,226.51c13.78-10.21,29.53-17.91,42.69-28,9.2-7,15.88-11.92,23.88-19.38,11.31-10.55,12.47-38.85,8-52.73"/><path class="cls-3" d="M85,229.44c9.47-6.7,19.37-12.63,29.05-18.83,4.85-3.1,9.62-6.28,14.26-9.65s9.33-6.75,13.88-10.25c2.27-1.76,4.51-3.55,6.7-5.41,1.09-.92,2.17-1.87,3.25-2.82.55-.47,1-1,1.5-1.49l.73-.75a10.29,10.29,0,0,0,.66-.82l1.29-1.68,1.11-1.82c.18-.3.37-.6.55-.91l.47-.95.94-1.92A52.16,52.16,0,0,0,162.1,164,67.35,67.35,0,0,0,164,147a61.3,61.3,0,0,0-2.49-17,61.67,61.67,0,0,1,2.87,17,68.36,68.36,0,0,1-1.59,17.23,52.9,52.9,0,0,1-2.58,8.31l-.92,2-.46,1-.55.95-1.1,1.89-1.3,1.78c-.23.29-.42.61-.67.88l-.76.81c-.51.52-1,1.11-1.53,1.58-1.06,1-2.13,2-3.22,2.91q-3.24,2.88-6.62,5.6c-4.5,3.62-9.12,7.08-13.69,10.58s-9.35,6.81-14.15,10c-9.58,6.43-19.32,12.56-28.52,19.38Z"/><text class="cls-4" transform="translate(182.72 134.51)">S<tspan class="cls-5" x="22.02" y="0">k</tspan><tspan class="cls-6" x="43.19" y="0">ylineCodes</tspan></text><line class="cls-7" x1="363.98" y1="168.95" x2="411.38" y2="168.95"/><text class="cls-8" transform="translate(203.08 154.59) scale(1.13 1)">Bringing <tspan class="cls-9" x="53.16" y="0">y</tspan><tspan x="60" y="0">ou to the frontline</tspan></text></g></g></svg>