<svg id="Layer_1" data-name="Layer 1" xmlns="http://www.w3.org/2000/svg" viewBox="0 0 1270.51 804.76"><defs><style>.cls-1{fill:none;}.cls-2,.cls-3,.cls-5{fill:#96351e;}.cls-3{opacity:0.9;font-size:104.71px;}.cls-3,.cls-5{font-family:BodoniMT, Bodoni MT;}.cls-4{letter-spacing:-0.01em;}.cls-5{opacity:0.8;font-size:37.41px;}.cls-6{letter-spacing:-0.04em;}.cls-7{letter-spacing:0em;}</style></defs><rect class="cls-1" y="113.66" width="1270.51" height="691.1"/><text x="-342.25" y="-59.24"/><text x="-342.25" y="-59.24"/><path class="cls-1" d="M854,407.3" transform="translate(-342.25 -59.24)"/><path class="cls-1" d="M949.47,652.48" transform="translate(-342.25 -59.24)"/><path class="cls-1" d="M938.22,490.39" transform="translate(-342.25 -59.24)"/><path d="M756.16,444.46" transform="translate(-342.25 -59.24)"/><rect class="cls-2" x="482.33" y="300.2"/><path class="cls-1" d="M661.32,554.32" transform="translate(-342.25 -59.24)"/><path class="cls-1" d="M656.72,558.11" transform="translate(-342.25 -59.24)"/><path class="cls-2" d="M830.9,337.76l-26.1-25.09c-19.28-18.53-62.63-12.2-96.82,14.13l-136.35,105c-34.2,26.33-46.29,62.7-27,81.23L570,537.41" transform="translate(-342.25 -59.24)"/><path class="cls-1" d="M697.76,562" transform="translate(-342.25 -59.24)"/><path class="cls-1" d="M683.31,585.07" transform="translate(-342.25 -59.24)"/><path class="cls-1" d="M674.52,593.33" transform="translate(-342.25 -59.24)"/><path class="cls-1" d="M661.32,554.32" transform="translate(-342.25 -59.24)"/><line class="cls-2" x1="227.65" y1="478.71" x2="487.89" y2="278.49"/><polygon class="cls-2" points="278.29 515.13 233.04 487.95 346.71 400.55 391.05 429.37 278.29 515.13"/><path class="cls-2" d="M746,496.38c-34,29.43-83.73,65.72-119.59,97.44-19.67,17.4-42.52,32.71-58,53.48-23.61,31.59-29.39,74-14.81,108.58" transform="translate(-342.25 -59.24)"/><path class="cls-2" d="M553.42,754.05c35.49-26.31,76.09-46.15,110-72,23.72-18.1,40.93-30.73,61.54-50,29.14-27.18,32.14-100.11,20.71-135.89" transform="translate(-342.25 -59.24)"/><path class="cls-1" d="M561,764.74c35.81-26,76.32-48.83,110.54-74.39,23.93-17.88,41.3-30.35,62.14-49.38C763.12,614.06,770,548,756,505.27" transform="translate(-342.25 -59.24)"/><text class="cls-3" transform="translate(468.31 457.73)">S<tspan class="cls-4" x="56.75" y="0">k</tspan><tspan x="111.31" y="0">ylineCodes</tspan></text><line class="cls-1" x1="739.51" y1="594.63" x2="821.15" y2="594.63"/><text class="cls-5" transform="translate(519.95 522.69) scale(1.13 1)">Bringing <tspan class="cls-6" x="146.83" y="0">y</tspan><tspan class="cls-7" x="165.72" y="0">ou to the frontline</tspan></text></svg>